<!DOCTYPE svg PUBLIC "-//W3C//DTD SVG 1.1//EN" "http://www.w3.org/Graphics/SVG/1.1/DTD/svg11.dtd">
<svg xmlns="http://www.w3.org/2000/svg" xmlns:xlink="http://www.w3.org/1999/xlink" width="140" height="27" viewBox="0 0 140 27">
  <defs>
    <path id="a" d="M0 0h140v27.092H0z"/>
  </defs>
  <clipPath id="b">
    <use xlink:href="#a" overflow="visible"/>
  </clipPath>
  <path clip-path="url(#b)" fill="#FFF" d="M14.462 0C6.287 0 0 6.065 0 13.545c0 7.48 6.287 13.547 14.462 13.547 8.174 0 14.464-6.066 14.464-13.547C28.926 6.065 22.638 0 14.462 0M7.915 25.01c-1.18-.515-2.274-1.262-3.27-2.207C2.27 20.53.644 17.16.71 13.46c.067-3.686 1.594-6.807 3.934-9.046.98-.914 2.075-1.676 3.27-2.275.232-.116.465-.215.68-.332-.214.15-.447.3-.68.448-1.195.83-2.324 1.794-3.27 2.905-1.808 2.158-3.02 4.897-3.086 8.3-.05 3.435 1.213 6.255 3.087 8.462.963 1.13 2.075 2.092 3.27 2.905.232.15.465.298.68.43-.216-.065-.45-.164-.68-.246m2.324-6.278c-.93-.53-1.76-1.377-2.308-2.44-.432-.813-.68-1.74-.663-2.737 0-.963.247-1.86.662-2.64.53-1.062 1.362-1.908 2.307-2.473.364-.216.762-.4 1.16-.547-.43.283-.813.582-1.16.91-1.197 1.13-1.91 2.59-1.926 4.75-.033 2.19.712 3.634 1.925 4.746.347.332.73.63 1.16.896-.4-.082-.796-.25-1.16-.464M9 13.545c0-3.167 2.54-6.002 5.463-6.125 2.922.124 5.46 2.96 5.46 6.125 0 3.167-2.54 6.004-5.46 6.126C11.54 19.55 9 16.713 9 13.546m9.72 5.17c-.398.232-.796.4-1.194.48.43-.282.83-.58 1.194-.91 1.194-1.112 1.925-2.557 1.908-4.73-.032-2.142-.746-3.603-1.908-4.714-.365-.35-.764-.646-1.194-.945.398.147.796.33 1.194.563.93.564 1.742 1.41 2.29 2.456.4.78.647 1.677.665 2.64 0 .996-.25 1.924-.664 2.736-.55 1.048-1.377 1.895-2.29 2.426m5.56 4.087c-.997.945-2.092 1.692-3.27 2.208-.233.084-.465.183-.68.25.215-.134.447-.283.68-.432 1.195-.813 2.306-1.776 3.27-2.905 1.875-2.207 3.135-5.028 3.087-8.463-.067-3.4-1.28-6.14-3.087-8.298-.946-1.11-2.075-2.076-3.27-2.905-.233-.15-.465-.3-.68-.448.215.115.447.215.68.33 1.195.6 2.29 1.36 3.27 2.274 2.34 2.24 3.866 5.36 3.932 9.045.068 3.7-1.56 7.068-3.932 9.343"/>
  <path clip-path="url(#b)" fill-rule="evenodd" clip-rule="evenodd" fill="#FFF" d="M94.033 17.692c2.143-.034 3.025-.578 3.375-.936.327-.356.457-1.01.457-1.554v-7.35h1.43v7.42c0 .976-.035 1.714-.815 2.378-.438.378-1.328 1.216-4.447 1.216-3.117 0-4.006-.838-4.444-1.216-.782-.664-.816-1.402-.816-2.378v-7.42h1.428v7.35c0 .543.13 1.198.458 1.554.35.358 1.232.902 3.373.936M120 12.684c2.764-.026 2.72-1.563 2.72-1.836 0-.203-.084-1.77-2.312-1.77H114.76v3.606H120zm.473-4.83c3.758 0 3.81 2.518 3.81 2.995 0 .683-.234 2.543-3.263 2.992l3.4 4.765h-1.837l-3.198-4.697h-4.625v4.697h-1.496V7.853h7.21zm-15.52 0h1.498l5.17 10.752h-1.635l-1.353-2.792h-5.855l-1.363 2.79H99.85l5.103-10.75zm.748 1.43l2.315 5.236h-4.697l2.383-5.237zm-51.214-1.43h1.496l5.168 10.752h-1.632l-1.354-2.792H52.31l-1.363 2.79h-1.564l5.103-10.75zm.748 1.43l2.313 5.236H52.85l2.384-5.237zm-8.845.882l-4.83 8.642-4.696-8.642v8.437h-1.5V7.853h2.044l4.218 8.03 4.357-8.03h1.9v10.75H46.39m16.19-5.373c0 3.893 5.9 5.997 10.065 2.313l.887 1.02c-.138.136-1.965 2.176-5.85 2.176-2.783 0-6.872-1.233-6.872-5.51 0-1.51.93-3.257 2.747-4.336 2.314-1.505 6.375-1.728 9.498.253l-.748 1.09C68.7 7.6 62.58 9.204 62.58 13.23m64.086-5.377h1.496v10.753h-1.496V7.854zM81.153 7.72c1.8 0 6.328.812 6.328 5.58 0 2.974-2.313 4.284-2.927 4.623l1.7 1.498-.816 1.09-2.177-1.837c-.557.217-1.373.322-2.108.34-5.48 0-6.393-4.474-6.393-5.706 0-3.768 3.03-5.588 6.393-5.588m-.002 1.086c-3.395 0-4.69 2.78-4.69 4.356 0 3.238 2.878 4.694 4.693 4.694.497-.008.756-.07.952-.138-.268-.268-1.17-.96-2.382-.68.276-.57 1.706-1.224 3.894.136 1.43-.953 2.16-2.108 2.16-3.876 0-3.07-2.793-4.492-4.626-4.492m50.685 4.934v3.433H140v1.433h-9.663V7.853H140v1.43h-8.165v3.063h5.51v1.426h-5.51v-.032z"/>
</svg>
