<!DOCTYPE svg PUBLIC "-//W3C//DTD SVG 1.1//EN" "http://www.w3.org/Graphics/SVG/1.1/DTD/svg11.dtd">
<svg xmlns="http://www.w3.org/2000/svg" width="50" height="50" viewBox="0 0 50 50">
  <path opacity=".5" fill="#FFF" d="M16.683 15.586C18.688 13.83 21 12.706 24 12.52V0C18 .206 12.07 2.723 7.787 6.73l8.896 8.856zM12.52 24c.187-3 1.31-5.313 3.066-7.317L6.732 7.787C2.722 12.07.206 18 0 24h12.52z"/>
  <path fill="#FFF" d="M26 0v12.52c3 .187 5.313 1.31 7.317 3.066l8.896-8.854C37.93 2.722 32 .206 26 0z"/>
  <path opacity=".5" fill="#FFF" d="M6.73 42.172l8.855-8.813C13.83 31.353 12.707 29 12.52 26H0c.206 6 2.723 11.888 6.73 16.172zM43.268 7.828l-8.854 8.813C36.17 18.647 37.294 21 37.48 24H50c-.206-6-2.723-11.888-6.732-16.172zM50 26H37.48c-.187 3-1.312 5.313-3.066 7.317l8.854 8.896C47.278 37.93 49.794 32 50 26zM33.318 34.414C31.313 36.17 29 37.294 26 37.48V50c6-.206 11.93-2.723 16.213-6.732l-8.895-8.854zM24 37.48c-3-.187-5.313-1.312-7.317-3.066l-8.896 8.854C12.07 47.278 18 49.794 24 50V37.48z"/>
</svg>
